<?xml version="1.0" standalone="no"?>
<!DOCTYPE svg PUBLIC "-//W3C//DTD SVG 20010904//EN"
 "http://www.w3.org/TR/2001/REC-SVG-20010904/DTD/svg10.dtd">
<svg version="1.0" xmlns="http://www.w3.org/2000/svg"
 width="500.000000pt" height="500.000000pt" viewBox="0 0 500.000000 500.000000"
 preserveAspectRatio="xMidYMid meet">
<metadata>
Created by potrace 1.14, written by Peter Selinger 2001-2017
</metadata>
<g transform="translate(0.000000,500.000000) scale(0.100000,-0.100000)"
fill="#000000" stroke="none">
<path d="M2827 4305 c-149 -53 -173 -265 -39 -357 166 -115 387 65 303 247
-48 104 -156 149 -264 110z"/>
<path d="M1735 4176 c-259 -60 -446 -203 -560 -431 -88 -176 -102 -318 -63
-613 25 -195 27 -192 -92 -216 -223 -46 -412 -220 -475 -440 -14 -46 -16 -86
-13 -190 4 -120 7 -137 36 -206 65 -152 170 -262 312 -327 41 -19 82 -38 90
-42 8 -4 31 -53 50 -107 60 -167 153 -298 282 -397 213 -163 476 -218 732
-153 195 50 357 163 486 342 105 144 190 203 327 225 68 11 79 10 205 -21 161
-39 286 -51 417 -40 494 43 899 401 1003 885 23 112 25 304 4 426 -67 375
-324 694 -679 840 -128 53 -219 72 -377 77 -174 5 -268 -10 -433 -69 -199 -71
-304 -46 -398 93 -115 169 -272 287 -464 348 -89 28 -298 37 -390 16z"/>
<path d="M681 3203 c-95 -47 -94 -191 2 -236 46 -22 85 -21 124 3 90 55 93
168 4 227 -40 27 -83 29 -130 6z"/>
<path d="M2957 1365 c-152 -38 -208 -213 -106 -329 100 -113 273 -95 337 36
80 161 -59 337 -231 293z"/>
</g>
</svg>
